<mxfile host="Electron" modified="2023-07-12T02:36:33.466Z" agent="Mozilla/5.0 (Windows NT 10.0; Win64; x64) AppleWebKit/537.36 (KHTML, like Gecko) draw.io/21.6.1 Chrome/112.0.5615.204 Electron/24.6.1 Safari/537.36" etag="DkGB0j1ANnwYG1byCpAj" version="21.6.1" type="device" pages="4">
  <diagram name="ijam-reg" id="2YBvvXClWsGukQMizWep">
    <mxGraphModel dx="698" dy="475" grid="1" gridSize="10" guides="1" tooltips="1" connect="1" arrows="1" fold="1" page="1" pageScale="1" pageWidth="850" pageHeight="1100" math="0" shadow="0">
      <root>
        <mxCell id="0" />
        <mxCell id="1" parent="0" />
        <mxCell id="yVocV595r93u3dwHQnqh-10" value="" style="endArrow=none;dashed=1;html=1;dashPattern=1 3;strokeWidth=2;rounded=0;labelBackgroundColor=#FFFFFF;" parent="1" edge="1">
          <mxGeometry width="50" height="50" relative="1" as="geometry">
            <mxPoint x="420" y="550" as="sourcePoint" />
            <mxPoint x="420" y="20" as="targetPoint" />
          </mxGeometry>
        </mxCell>
        <mxCell id="aM9ryv3xv72pqoxQDRHE-1" value="User" style="shape=umlLifeline;perimeter=lifelinePerimeter;whiteSpace=wrap;html=1;container=0;dropTarget=0;collapsible=0;recursiveResize=0;outlineConnect=0;portConstraint=eastwest;newEdgeStyle={&quot;edgeStyle&quot;:&quot;elbowEdgeStyle&quot;,&quot;elbow&quot;:&quot;vertical&quot;,&quot;curved&quot;:0,&quot;rounded&quot;:0};labelBackgroundColor=#FFFFFF;" parent="1" vertex="1">
          <mxGeometry x="70" y="40" width="100" height="500" as="geometry" />
        </mxCell>
        <mxCell id="aM9ryv3xv72pqoxQDRHE-2" value="" style="html=1;points=[];perimeter=orthogonalPerimeter;outlineConnect=0;targetShapes=umlLifeline;portConstraint=eastwest;newEdgeStyle={&quot;edgeStyle&quot;:&quot;elbowEdgeStyle&quot;,&quot;elbow&quot;:&quot;vertical&quot;,&quot;curved&quot;:0,&quot;rounded&quot;:0};labelBackgroundColor=#FFFFFF;" parent="aM9ryv3xv72pqoxQDRHE-1" vertex="1">
          <mxGeometry x="45" y="70" width="10" height="420" as="geometry" />
        </mxCell>
        <mxCell id="aM9ryv3xv72pqoxQDRHE-4" value="" style="html=1;points=[];perimeter=orthogonalPerimeter;outlineConnect=0;targetShapes=umlLifeline;portConstraint=eastwest;newEdgeStyle={&quot;edgeStyle&quot;:&quot;elbowEdgeStyle&quot;,&quot;elbow&quot;:&quot;vertical&quot;,&quot;curved&quot;:0,&quot;rounded&quot;:0};labelBackgroundColor=#FFFFFF;" parent="aM9ryv3xv72pqoxQDRHE-1" vertex="1">
          <mxGeometry x="50" y="120" width="10" height="40" as="geometry" />
        </mxCell>
        <mxCell id="aM9ryv3xv72pqoxQDRHE-5" value="Node registration program" style="shape=umlLifeline;perimeter=lifelinePerimeter;whiteSpace=wrap;html=1;container=0;dropTarget=0;collapsible=0;recursiveResize=0;outlineConnect=0;portConstraint=eastwest;newEdgeStyle={&quot;edgeStyle&quot;:&quot;elbowEdgeStyle&quot;,&quot;elbow&quot;:&quot;vertical&quot;,&quot;curved&quot;:0,&quot;rounded&quot;:0};labelBackgroundColor=#FFFFFF;" parent="1" vertex="1">
          <mxGeometry x="290" y="40" width="100" height="500" as="geometry" />
        </mxCell>
        <mxCell id="aM9ryv3xv72pqoxQDRHE-6" value="" style="html=1;points=[];perimeter=orthogonalPerimeter;outlineConnect=0;targetShapes=umlLifeline;portConstraint=eastwest;newEdgeStyle={&quot;edgeStyle&quot;:&quot;elbowEdgeStyle&quot;,&quot;elbow&quot;:&quot;vertical&quot;,&quot;curved&quot;:0,&quot;rounded&quot;:0};labelBackgroundColor=#FFFFFF;" parent="aM9ryv3xv72pqoxQDRHE-5" vertex="1">
          <mxGeometry x="45" y="80" width="10" height="410" as="geometry" />
        </mxCell>
        <mxCell id="yVocV595r93u3dwHQnqh-13" value="&lt;div&gt;RSA&lt;/div&gt;&lt;div&gt;encrypt&lt;br&gt;&lt;/div&gt;" style="html=1;points=[];perimeter=orthogonalPerimeter;outlineConnect=0;targetShapes=umlLifeline;portConstraint=eastwest;newEdgeStyle={&quot;edgeStyle&quot;:&quot;elbowEdgeStyle&quot;,&quot;elbow&quot;:&quot;vertical&quot;,&quot;curved&quot;:0,&quot;rounded&quot;:0};labelBackgroundColor=#FFFFFF;" parent="aM9ryv3xv72pqoxQDRHE-5" vertex="1">
          <mxGeometry x="50" y="310" width="50" height="50" as="geometry" />
        </mxCell>
        <mxCell id="yVocV595r93u3dwHQnqh-28" value="&lt;div&gt;Random&lt;/div&gt;&lt;div&gt;key&lt;br&gt;&lt;/div&gt;" style="html=1;points=[];perimeter=orthogonalPerimeter;outlineConnect=0;targetShapes=umlLifeline;portConstraint=eastwest;newEdgeStyle={&quot;edgeStyle&quot;:&quot;elbowEdgeStyle&quot;,&quot;elbow&quot;:&quot;vertical&quot;,&quot;curved&quot;:0,&quot;rounded&quot;:0};labelBackgroundColor=#FFFFFF;" parent="aM9ryv3xv72pqoxQDRHE-5" vertex="1">
          <mxGeometry x="50" y="210" width="50" height="50" as="geometry" />
        </mxCell>
        <mxCell id="yVocV595r93u3dwHQnqh-29" value="" style="endArrow=classic;html=1;rounded=0;labelBackgroundColor=#FFFFFF;" parent="aM9ryv3xv72pqoxQDRHE-5" source="yVocV595r93u3dwHQnqh-38" target="yVocV595r93u3dwHQnqh-13" edge="1">
          <mxGeometry width="50" height="50" relative="1" as="geometry">
            <mxPoint x="140" y="320" as="sourcePoint" />
            <mxPoint x="190" y="270" as="targetPoint" />
          </mxGeometry>
        </mxCell>
        <mxCell id="yVocV595r93u3dwHQnqh-35" value="&lt;div&gt;AES&lt;/div&gt;&lt;div&gt;decrypt&lt;/div&gt;" style="html=1;points=[];perimeter=orthogonalPerimeter;outlineConnect=0;targetShapes=umlLifeline;portConstraint=eastwest;newEdgeStyle={&quot;edgeStyle&quot;:&quot;elbowEdgeStyle&quot;,&quot;elbow&quot;:&quot;vertical&quot;,&quot;curved&quot;:0,&quot;rounded&quot;:0};labelBackgroundColor=#FFFFFF;" parent="aM9ryv3xv72pqoxQDRHE-5" vertex="1">
          <mxGeometry x="50" y="380" width="50" height="50" as="geometry" />
        </mxCell>
        <mxCell id="yVocV595r93u3dwHQnqh-38" value="" style="shape=waypoint;sketch=0;fillStyle=solid;size=6;pointerEvents=1;points=[];fillColor=none;resizable=0;rotatable=0;perimeter=centerPerimeter;snapToPoint=1;labelBackgroundColor=#FFFFFF;" parent="aM9ryv3xv72pqoxQDRHE-5" vertex="1">
          <mxGeometry x="65" y="270" width="20" height="20" as="geometry" />
        </mxCell>
        <mxCell id="yVocV595r93u3dwHQnqh-40" value="" style="endArrow=none;html=1;rounded=0;entryX=0.55;entryY=0.55;entryDx=0;entryDy=0;entryPerimeter=0;labelBackgroundColor=#FFFFFF;" parent="aM9ryv3xv72pqoxQDRHE-5" source="yVocV595r93u3dwHQnqh-28" target="yVocV595r93u3dwHQnqh-38" edge="1">
          <mxGeometry width="50" height="50" relative="1" as="geometry">
            <mxPoint x="140" y="310" as="sourcePoint" />
            <mxPoint x="190" y="260" as="targetPoint" />
          </mxGeometry>
        </mxCell>
        <mxCell id="yVocV595r93u3dwHQnqh-1" value="CC certificate server" style="shape=umlLifeline;perimeter=lifelinePerimeter;whiteSpace=wrap;html=1;container=0;dropTarget=0;collapsible=0;recursiveResize=0;outlineConnect=0;portConstraint=eastwest;newEdgeStyle={&quot;edgeStyle&quot;:&quot;elbowEdgeStyle&quot;,&quot;elbow&quot;:&quot;vertical&quot;,&quot;curved&quot;:0,&quot;rounded&quot;:0};labelBackgroundColor=#FFFFFF;" parent="1" vertex="1">
          <mxGeometry x="440" y="40" width="100" height="500" as="geometry" />
        </mxCell>
        <mxCell id="yVocV595r93u3dwHQnqh-2" value="" style="html=1;points=[];perimeter=orthogonalPerimeter;outlineConnect=0;targetShapes=umlLifeline;portConstraint=eastwest;newEdgeStyle={&quot;edgeStyle&quot;:&quot;elbowEdgeStyle&quot;,&quot;elbow&quot;:&quot;vertical&quot;,&quot;curved&quot;:0,&quot;rounded&quot;:0};labelBackgroundColor=#FFFFFF;" parent="yVocV595r93u3dwHQnqh-1" vertex="1">
          <mxGeometry x="45" y="150" width="10" height="60" as="geometry" />
        </mxCell>
        <mxCell id="yVocV595r93u3dwHQnqh-3" value="CC registration server" style="shape=umlLifeline;perimeter=lifelinePerimeter;whiteSpace=wrap;html=1;container=0;dropTarget=0;collapsible=0;recursiveResize=0;outlineConnect=0;portConstraint=eastwest;newEdgeStyle={&quot;edgeStyle&quot;:&quot;elbowEdgeStyle&quot;,&quot;elbow&quot;:&quot;vertical&quot;,&quot;curved&quot;:0,&quot;rounded&quot;:0};labelBackgroundColor=#FFFFFF;" parent="1" vertex="1">
          <mxGeometry x="560" y="40" width="100" height="500" as="geometry" />
        </mxCell>
        <mxCell id="yVocV595r93u3dwHQnqh-4" value="" style="html=1;points=[];perimeter=orthogonalPerimeter;outlineConnect=0;targetShapes=umlLifeline;portConstraint=eastwest;newEdgeStyle={&quot;edgeStyle&quot;:&quot;elbowEdgeStyle&quot;,&quot;elbow&quot;:&quot;vertical&quot;,&quot;curved&quot;:0,&quot;rounded&quot;:0};labelBackgroundColor=#FFFFFF;" parent="yVocV595r93u3dwHQnqh-3" vertex="1">
          <mxGeometry x="45" y="320" width="10" height="90" as="geometry" />
        </mxCell>
        <mxCell id="yVocV595r93u3dwHQnqh-6" value="request certificate" style="html=1;verticalAlign=bottom;endArrow=block;edgeStyle=elbowEdgeStyle;elbow=vertical;curved=0;rounded=0;labelBackgroundColor=#FFFFFF;" parent="1" source="aM9ryv3xv72pqoxQDRHE-6" edge="1">
          <mxGeometry x="0.058" y="-1" relative="1" as="geometry">
            <mxPoint x="350" y="210" as="sourcePoint" />
            <Array as="points">
              <mxPoint x="390" y="210" />
            </Array>
            <mxPoint x="486" y="210" as="targetPoint" />
            <mxPoint as="offset" />
          </mxGeometry>
        </mxCell>
        <mxCell id="yVocV595r93u3dwHQnqh-9" value="public certificate" style="html=1;verticalAlign=bottom;endArrow=open;dashed=1;endSize=8;edgeStyle=elbowEdgeStyle;elbow=vertical;curved=0;rounded=0;entryX=0.314;entryY=0.421;entryDx=0;entryDy=0;entryPerimeter=0;labelBackgroundColor=#FFFFFF;" parent="1" source="yVocV595r93u3dwHQnqh-2" target="yVocV595r93u3dwHQnqh-42" edge="1">
          <mxGeometry relative="1" as="geometry">
            <mxPoint x="345" y="230" as="targetPoint" />
            <Array as="points">
              <mxPoint x="470" y="230" />
            </Array>
            <mxPoint x="480" y="230" as="sourcePoint" />
          </mxGeometry>
        </mxCell>
        <mxCell id="yVocV595r93u3dwHQnqh-11" value="Node" style="text;html=1;strokeColor=none;fillColor=none;align=center;verticalAlign=middle;whiteSpace=wrap;rounded=0;labelBackgroundColor=#FFFFFF;" parent="1" vertex="1">
          <mxGeometry x="350" y="10" width="60" height="30" as="geometry" />
        </mxCell>
        <mxCell id="yVocV595r93u3dwHQnqh-12" value="Control Center" style="text;html=1;strokeColor=none;fillColor=none;align=center;verticalAlign=middle;whiteSpace=wrap;rounded=0;labelBackgroundColor=#FFFFFF;" parent="1" vertex="1">
          <mxGeometry x="425" y="10" width="95" height="30" as="geometry" />
        </mxCell>
        <mxCell id="yVocV595r93u3dwHQnqh-17" value="" style="triangle;whiteSpace=wrap;html=1;labelBackgroundColor=#FFFFFF;" parent="1" vertex="1">
          <mxGeometry x="340" y="350" width="10" height="20" as="geometry" />
        </mxCell>
        <mxCell id="yVocV595r93u3dwHQnqh-18" value="" style="endArrow=classic;html=1;rounded=0;entryX=0;entryY=0.5;entryDx=0;entryDy=0;labelBackgroundColor=#FFFFFF;" parent="1" source="yVocV595r93u3dwHQnqh-42" target="yVocV595r93u3dwHQnqh-17" edge="1">
          <mxGeometry width="50" height="50" relative="1" as="geometry">
            <mxPoint x="280" y="220" as="sourcePoint" />
            <mxPoint x="390" y="260" as="targetPoint" />
            <Array as="points">
              <mxPoint x="320" y="230" />
              <mxPoint x="320" y="360" />
            </Array>
          </mxGeometry>
        </mxCell>
        <mxCell id="yVocV595r93u3dwHQnqh-19" value="" style="endArrow=classic;html=1;rounded=0;labelBackgroundColor=#FFFFFF;" parent="1" source="yVocV595r93u3dwHQnqh-13" target="yVocV595r93u3dwHQnqh-4" edge="1">
          <mxGeometry width="50" height="50" relative="1" as="geometry">
            <mxPoint x="460" y="340" as="sourcePoint" />
            <mxPoint x="604" y="343" as="targetPoint" />
          </mxGeometry>
        </mxCell>
        <mxCell id="yVocV595r93u3dwHQnqh-21" value="Encrypted request body" style="edgeLabel;html=1;align=center;verticalAlign=middle;resizable=0;points=[];labelBackgroundColor=#FFFFFF;" parent="yVocV595r93u3dwHQnqh-19" vertex="1" connectable="0">
          <mxGeometry x="0.0047" relative="1" as="geometry">
            <mxPoint x="-2" y="-8" as="offset" />
          </mxGeometry>
        </mxCell>
        <mxCell id="yVocV595r93u3dwHQnqh-30" value="" style="endArrow=classic;html=1;rounded=0;startArrow=none;startFill=0;endFill=1;labelBackgroundColor=#FFFFFF;" parent="1" source="yVocV595r93u3dwHQnqh-76" target="yVocV595r93u3dwHQnqh-13" edge="1">
          <mxGeometry width="50" height="50" relative="1" as="geometry">
            <mxPoint x="290" y="196" as="sourcePoint" />
            <mxPoint x="352" y="348" as="targetPoint" />
            <Array as="points">
              <mxPoint x="290" y="326" />
              <mxPoint x="352" y="326" />
            </Array>
          </mxGeometry>
        </mxCell>
        <mxCell id="yVocV595r93u3dwHQnqh-33" value="Encrypted node ID" style="html=1;verticalAlign=bottom;endArrow=open;dashed=1;endSize=8;edgeStyle=elbowEdgeStyle;elbow=vertical;curved=0;rounded=0;labelBackgroundColor=#FFFFFF;" parent="1" edge="1">
          <mxGeometry relative="1" as="geometry">
            <mxPoint x="390" y="430" as="targetPoint" />
            <Array as="points">
              <mxPoint x="565" y="430" />
            </Array>
            <mxPoint x="603" y="430" as="sourcePoint" />
          </mxGeometry>
        </mxCell>
        <mxCell id="yVocV595r93u3dwHQnqh-36" value="" style="triangle;whiteSpace=wrap;html=1;labelBackgroundColor=#FFFFFF;" parent="1" vertex="1">
          <mxGeometry x="340" y="420" width="10" height="20" as="geometry" />
        </mxCell>
        <mxCell id="yVocV595r93u3dwHQnqh-37" value="" style="endArrow=classic;html=1;rounded=0;entryX=0;entryY=0.5;entryDx=0;entryDy=0;labelBackgroundColor=#FFFFFF;" parent="1" source="yVocV595r93u3dwHQnqh-38" target="yVocV595r93u3dwHQnqh-36" edge="1">
          <mxGeometry width="50" height="50" relative="1" as="geometry">
            <mxPoint x="364" y="310" as="sourcePoint" />
            <mxPoint x="480" y="340" as="targetPoint" />
            <Array as="points">
              <mxPoint x="310" y="320" />
              <mxPoint x="310" y="430" />
            </Array>
          </mxGeometry>
        </mxCell>
        <mxCell id="yVocV595r93u3dwHQnqh-41" value="" style="endArrow=classic;html=1;rounded=0;entryDx=0;entryDy=0;labelBackgroundColor=#FFFFFF;" parent="1" source="aM9ryv3xv72pqoxQDRHE-5" target="yVocV595r93u3dwHQnqh-42" edge="1">
          <mxGeometry width="50" height="50" relative="1" as="geometry">
            <mxPoint x="340" y="230" as="sourcePoint" />
            <mxPoint x="340" y="360" as="targetPoint" />
            <Array as="points" />
          </mxGeometry>
        </mxCell>
        <mxCell id="yVocV595r93u3dwHQnqh-42" value="" style="shape=waypoint;sketch=0;fillStyle=solid;size=6;pointerEvents=1;points=[];fillColor=none;resizable=0;rotatable=0;perimeter=centerPerimeter;snapToPoint=1;labelBackgroundColor=#FFFFFF;" parent="1" vertex="1">
          <mxGeometry x="330" y="220" width="20" height="20" as="geometry" />
        </mxCell>
        <mxCell id="yVocV595r93u3dwHQnqh-52" value="Node persistence" style="shape=umlLifeline;perimeter=lifelinePerimeter;whiteSpace=wrap;html=1;container=0;dropTarget=0;collapsible=0;recursiveResize=0;outlineConnect=0;portConstraint=eastwest;newEdgeStyle={&quot;edgeStyle&quot;:&quot;elbowEdgeStyle&quot;,&quot;elbow&quot;:&quot;vertical&quot;,&quot;curved&quot;:0,&quot;rounded&quot;:0};labelBackgroundColor=#FFFFFF;" parent="1" vertex="1">
          <mxGeometry x="180" y="40" width="100" height="500" as="geometry" />
        </mxCell>
        <mxCell id="yVocV595r93u3dwHQnqh-53" value="" style="html=1;points=[];perimeter=orthogonalPerimeter;outlineConnect=0;targetShapes=umlLifeline;portConstraint=eastwest;newEdgeStyle={&quot;edgeStyle&quot;:&quot;elbowEdgeStyle&quot;,&quot;elbow&quot;:&quot;vertical&quot;,&quot;curved&quot;:0,&quot;rounded&quot;:0};labelBackgroundColor=#FFFFFF;" parent="yVocV595r93u3dwHQnqh-52" vertex="1">
          <mxGeometry x="45" y="420" width="10" height="40" as="geometry" />
        </mxCell>
        <mxCell id="yVocV595r93u3dwHQnqh-68" value="" style="edgeStyle=orthogonalEdgeStyle;rounded=0;orthogonalLoop=1;jettySize=auto;html=1;labelBackgroundColor=#FFFFFF;" parent="1" source="yVocV595r93u3dwHQnqh-65" target="yVocV595r93u3dwHQnqh-53" edge="1">
          <mxGeometry relative="1" as="geometry" />
        </mxCell>
        <mxCell id="yVocV595r93u3dwHQnqh-69" value="Decrypted ID" style="edgeLabel;html=1;align=center;verticalAlign=middle;resizable=0;points=[];labelBackgroundColor=#FFFFFF;" parent="yVocV595r93u3dwHQnqh-68" vertex="1" connectable="0">
          <mxGeometry x="-0.017" relative="1" as="geometry">
            <mxPoint as="offset" />
          </mxGeometry>
        </mxCell>
        <mxCell id="yVocV595r93u3dwHQnqh-65" value="" style="shape=waypoint;sketch=0;fillStyle=solid;size=6;pointerEvents=1;points=[];fillColor=none;resizable=0;rotatable=0;perimeter=centerPerimeter;snapToPoint=1;labelBackgroundColor=#FFFFFF;" parent="1" vertex="1">
          <mxGeometry x="330" y="470" width="20" height="20" as="geometry" />
        </mxCell>
        <mxCell id="yVocV595r93u3dwHQnqh-71" value="" style="endArrow=none;html=1;rounded=0;endFill=0;labelBackgroundColor=#FFFFFF;" parent="1" source="yVocV595r93u3dwHQnqh-35" target="yVocV595r93u3dwHQnqh-65" edge="1">
          <mxGeometry width="50" height="50" relative="1" as="geometry">
            <mxPoint x="465" y="520" as="sourcePoint" />
            <mxPoint x="515" y="470" as="targetPoint" />
            <Array as="points">
              <mxPoint x="365" y="480" />
            </Array>
          </mxGeometry>
        </mxCell>
        <mxCell id="yVocV595r93u3dwHQnqh-72" value="Exit code" style="html=1;verticalAlign=bottom;endArrow=open;dashed=1;endSize=8;edgeStyle=elbowEdgeStyle;elbow=vertical;curved=0;rounded=0;labelBackgroundColor=#FFFFFF;" parent="1" edge="1">
          <mxGeometry relative="1" as="geometry">
            <mxPoint x="124" y="520" as="targetPoint" />
            <Array as="points">
              <mxPoint x="298.5" y="520" />
            </Array>
            <mxPoint x="335" y="520" as="sourcePoint" />
          </mxGeometry>
        </mxCell>
        <mxCell id="yVocV595r93u3dwHQnqh-73" value="Dispatch" style="html=1;verticalAlign=bottom;endArrow=none;endSize=8;edgeStyle=elbowEdgeStyle;elbow=vertical;curved=0;rounded=0;labelBackgroundColor=#FFFFFF;startArrow=classic;startFill=1;endFill=0;" parent="1" edge="1">
          <mxGeometry relative="1" as="geometry">
            <mxPoint x="124.5" y="130" as="targetPoint" />
            <Array as="points">
              <mxPoint x="299" y="130" />
            </Array>
            <mxPoint x="335.5" y="130" as="sourcePoint" />
          </mxGeometry>
        </mxCell>
        <mxCell id="yVocV595r93u3dwHQnqh-74" value="Console prompt" style="html=1;verticalAlign=bottom;endArrow=classic;endSize=8;edgeStyle=elbowEdgeStyle;elbow=vertical;curved=0;rounded=0;labelBackgroundColor=#FFFFFF;endFill=1;" parent="1" edge="1">
          <mxGeometry relative="1" as="geometry">
            <mxPoint x="131" y="170" as="targetPoint" />
            <Array as="points">
              <mxPoint x="299" y="170" />
            </Array>
            <mxPoint x="335.5" y="170" as="sourcePoint" />
          </mxGeometry>
        </mxCell>
        <mxCell id="yVocV595r93u3dwHQnqh-75" value="Network ID and reg. key" style="html=1;verticalAlign=bottom;endArrow=none;endSize=8;edgeStyle=elbowEdgeStyle;elbow=vertical;curved=0;rounded=0;labelBackgroundColor=#FFFFFF;startArrow=none;startFill=0;endFill=0;dashed=1;" parent="1" edge="1">
          <mxGeometry x="-0.2496" relative="1" as="geometry">
            <mxPoint x="130" y="190" as="targetPoint" />
            <Array as="points" />
            <mxPoint x="290" y="190" as="sourcePoint" />
            <mxPoint as="offset" />
          </mxGeometry>
        </mxCell>
        <mxCell id="yVocV595r93u3dwHQnqh-77" value="" style="html=1;verticalAlign=bottom;endArrow=none;endSize=8;edgeStyle=elbowEdgeStyle;elbow=vertical;curved=0;rounded=0;labelBackgroundColor=#FFFFFF;startArrow=open;startFill=0;endFill=0;dashed=1;" parent="1" target="yVocV595r93u3dwHQnqh-76" edge="1">
          <mxGeometry relative="1" as="geometry">
            <mxPoint x="129" y="180" as="targetPoint" />
            <Array as="points">
              <mxPoint x="310" y="190" />
            </Array>
            <mxPoint x="335" y="190" as="sourcePoint" />
          </mxGeometry>
        </mxCell>
        <mxCell id="yVocV595r93u3dwHQnqh-76" value="" style="shape=waypoint;sketch=0;fillStyle=solid;size=6;pointerEvents=1;points=[];fillColor=none;resizable=0;rotatable=0;perimeter=centerPerimeter;snapToPoint=1;labelBackgroundColor=#FFFFFF;" parent="1" vertex="1">
          <mxGeometry x="280" y="180" width="20" height="20" as="geometry" />
        </mxCell>
      </root>
    </mxGraphModel>
  </diagram>
  <diagram id="QuMr_jbMCLahWsge0i0A" name="cert-server">
    <mxGraphModel dx="1221" dy="831" grid="1" gridSize="10" guides="1" tooltips="1" connect="1" arrows="1" fold="1" page="1" pageScale="1" pageWidth="850" pageHeight="1100" math="0" shadow="0">
      <root>
        <mxCell id="0" />
        <mxCell id="1" parent="0" />
        <mxCell id="T-5fNlv-rFT1i2BlVXxz-1" value="" style="endArrow=none;dashed=1;html=1;dashPattern=1 3;strokeWidth=2;rounded=0;labelBackgroundColor=#FFFFFF;" edge="1" parent="1">
          <mxGeometry width="50" height="50" relative="1" as="geometry">
            <mxPoint x="420" y="200" as="sourcePoint" />
            <mxPoint x="420" y="20" as="targetPoint" />
          </mxGeometry>
        </mxCell>
        <mxCell id="T-5fNlv-rFT1i2BlVXxz-2" value="Node registration program" style="shape=umlLifeline;perimeter=lifelinePerimeter;whiteSpace=wrap;html=1;container=0;dropTarget=0;collapsible=0;recursiveResize=0;outlineConnect=0;portConstraint=eastwest;newEdgeStyle={&quot;edgeStyle&quot;:&quot;elbowEdgeStyle&quot;,&quot;elbow&quot;:&quot;vertical&quot;,&quot;curved&quot;:0,&quot;rounded&quot;:0};labelBackgroundColor=#FFFFFF;" vertex="1" parent="1">
          <mxGeometry x="290" y="40" width="100" height="150" as="geometry" />
        </mxCell>
        <mxCell id="T-5fNlv-rFT1i2BlVXxz-3" value="" style="html=1;points=[];perimeter=orthogonalPerimeter;outlineConnect=0;targetShapes=umlLifeline;portConstraint=eastwest;newEdgeStyle={&quot;edgeStyle&quot;:&quot;elbowEdgeStyle&quot;,&quot;elbow&quot;:&quot;vertical&quot;,&quot;curved&quot;:0,&quot;rounded&quot;:0};labelBackgroundColor=#FFFFFF;" vertex="1" parent="T-5fNlv-rFT1i2BlVXxz-2">
          <mxGeometry x="45" y="80" width="10" height="60" as="geometry" />
        </mxCell>
        <mxCell id="T-5fNlv-rFT1i2BlVXxz-4" value="CC certificate server" style="shape=umlLifeline;perimeter=lifelinePerimeter;whiteSpace=wrap;html=1;container=0;dropTarget=0;collapsible=0;recursiveResize=0;outlineConnect=0;portConstraint=eastwest;newEdgeStyle={&quot;edgeStyle&quot;:&quot;elbowEdgeStyle&quot;,&quot;elbow&quot;:&quot;vertical&quot;,&quot;curved&quot;:0,&quot;rounded&quot;:0};labelBackgroundColor=#FFFFFF;" vertex="1" parent="1">
          <mxGeometry x="450" y="40" width="100" height="150" as="geometry" />
        </mxCell>
        <mxCell id="T-5fNlv-rFT1i2BlVXxz-5" value="" style="html=1;points=[];perimeter=orthogonalPerimeter;outlineConnect=0;targetShapes=umlLifeline;portConstraint=eastwest;newEdgeStyle={&quot;edgeStyle&quot;:&quot;elbowEdgeStyle&quot;,&quot;elbow&quot;:&quot;vertical&quot;,&quot;curved&quot;:0,&quot;rounded&quot;:0};labelBackgroundColor=#FFFFFF;" vertex="1" parent="T-5fNlv-rFT1i2BlVXxz-4">
          <mxGeometry x="45" y="80" width="10" height="60" as="geometry" />
        </mxCell>
        <mxCell id="T-5fNlv-rFT1i2BlVXxz-6" value="certificate magic" style="html=1;verticalAlign=bottom;endArrow=block;edgeStyle=elbowEdgeStyle;elbow=horizontal;curved=0;rounded=0;labelBackgroundColor=#FFFFFF;" edge="1" parent="1" source="T-5fNlv-rFT1i2BlVXxz-3" target="T-5fNlv-rFT1i2BlVXxz-5">
          <mxGeometry relative="1" as="geometry">
            <mxPoint x="350" y="130" as="sourcePoint" />
            <Array as="points">
              <mxPoint x="399.9" y="130" />
            </Array>
            <mxPoint x="495.9" y="130" as="targetPoint" />
            <mxPoint as="offset" />
          </mxGeometry>
        </mxCell>
        <mxCell id="T-5fNlv-rFT1i2BlVXxz-7" value="public certificate" style="html=1;verticalAlign=bottom;endArrow=open;dashed=1;endSize=8;edgeStyle=elbowEdgeStyle;elbow=vertical;curved=0;rounded=0;labelBackgroundColor=#FFFFFF;" edge="1" parent="1" source="T-5fNlv-rFT1i2BlVXxz-5" target="T-5fNlv-rFT1i2BlVXxz-3">
          <mxGeometry relative="1" as="geometry">
            <mxPoint x="340" y="230" as="targetPoint" />
            <Array as="points">
              <mxPoint x="430" y="160" />
            </Array>
            <mxPoint x="480" y="230" as="sourcePoint" />
          </mxGeometry>
        </mxCell>
        <mxCell id="T-5fNlv-rFT1i2BlVXxz-8" value="Node" style="text;html=1;strokeColor=none;fillColor=none;align=center;verticalAlign=middle;whiteSpace=wrap;rounded=0;labelBackgroundColor=#FFFFFF;" vertex="1" parent="1">
          <mxGeometry x="350" y="10" width="60" height="30" as="geometry" />
        </mxCell>
        <mxCell id="T-5fNlv-rFT1i2BlVXxz-9" value="Control Center" style="text;html=1;strokeColor=none;fillColor=none;align=center;verticalAlign=middle;whiteSpace=wrap;rounded=0;labelBackgroundColor=#FFFFFF;" vertex="1" parent="1">
          <mxGeometry x="425" y="10" width="95" height="30" as="geometry" />
        </mxCell>
      </root>
    </mxGraphModel>
  </diagram>
  <diagram id="3T6VVL2MUkNtbj0L-s3b" name="reg-server">
    <mxGraphModel dx="488" dy="332" grid="1" gridSize="10" guides="1" tooltips="1" connect="1" arrows="1" fold="1" page="1" pageScale="1" pageWidth="850" pageHeight="1100" math="0" shadow="0">
      <root>
        <mxCell id="0" />
        <mxCell id="1" parent="0" />
        <mxCell id="bYaiq9KGUtEaHgg68krm-1" value="" style="endArrow=none;dashed=1;html=1;dashPattern=1 3;strokeWidth=2;rounded=0;labelBackgroundColor=#FFFFFF;" edge="1" parent="1">
          <mxGeometry width="50" height="50" relative="1" as="geometry">
            <mxPoint x="420" y="490" as="sourcePoint" />
            <mxPoint x="420" y="20" as="targetPoint" />
          </mxGeometry>
        </mxCell>
        <mxCell id="bYaiq9KGUtEaHgg68krm-2" value="Node registration program" style="shape=umlLifeline;perimeter=lifelinePerimeter;whiteSpace=wrap;html=1;container=0;dropTarget=0;collapsible=0;recursiveResize=0;outlineConnect=0;portConstraint=eastwest;newEdgeStyle={&quot;edgeStyle&quot;:&quot;elbowEdgeStyle&quot;,&quot;elbow&quot;:&quot;vertical&quot;,&quot;curved&quot;:0,&quot;rounded&quot;:0};labelBackgroundColor=#FFFFFF;" vertex="1" parent="1">
          <mxGeometry x="290" y="40" width="100" height="440" as="geometry" />
        </mxCell>
        <mxCell id="bYaiq9KGUtEaHgg68krm-3" value="" style="html=1;points=[];perimeter=orthogonalPerimeter;outlineConnect=0;targetShapes=umlLifeline;portConstraint=eastwest;newEdgeStyle={&quot;edgeStyle&quot;:&quot;elbowEdgeStyle&quot;,&quot;elbow&quot;:&quot;vertical&quot;,&quot;curved&quot;:0,&quot;rounded&quot;:0};labelBackgroundColor=#FFFFFF;" vertex="1" parent="bYaiq9KGUtEaHgg68krm-2">
          <mxGeometry x="45" y="80" width="10" height="350" as="geometry" />
        </mxCell>
        <mxCell id="bYaiq9KGUtEaHgg68krm-4" value="CC registration server" style="shape=umlLifeline;perimeter=lifelinePerimeter;whiteSpace=wrap;html=1;container=0;dropTarget=0;collapsible=0;recursiveResize=0;outlineConnect=0;portConstraint=eastwest;newEdgeStyle={&quot;edgeStyle&quot;:&quot;elbowEdgeStyle&quot;,&quot;elbow&quot;:&quot;vertical&quot;,&quot;curved&quot;:0,&quot;rounded&quot;:0};labelBackgroundColor=#FFFFFF;" vertex="1" parent="1">
          <mxGeometry x="450" y="40" width="100" height="440" as="geometry" />
        </mxCell>
        <mxCell id="bYaiq9KGUtEaHgg68krm-5" value="" style="html=1;points=[];perimeter=orthogonalPerimeter;outlineConnect=0;targetShapes=umlLifeline;portConstraint=eastwest;newEdgeStyle={&quot;edgeStyle&quot;:&quot;elbowEdgeStyle&quot;,&quot;elbow&quot;:&quot;vertical&quot;,&quot;curved&quot;:0,&quot;rounded&quot;:0};labelBackgroundColor=#FFFFFF;" vertex="1" parent="bYaiq9KGUtEaHgg68krm-4">
          <mxGeometry x="45" y="80" width="10" height="350" as="geometry" />
        </mxCell>
        <mxCell id="bYaiq9KGUtEaHgg68krm-6" value="&lt;div&gt;RSA&lt;/div&gt;&lt;div&gt;decrypt&lt;br&gt;&lt;/div&gt;" style="html=1;points=[];perimeter=orthogonalPerimeter;outlineConnect=0;targetShapes=umlLifeline;portConstraint=eastwest;newEdgeStyle={&quot;edgeStyle&quot;:&quot;elbowEdgeStyle&quot;,&quot;elbow&quot;:&quot;vertical&quot;,&quot;curved&quot;:0,&quot;rounded&quot;:0};labelBackgroundColor=#FFFFFF;" vertex="1" parent="bYaiq9KGUtEaHgg68krm-4">
          <mxGeometry y="100" width="50" height="50" as="geometry" />
        </mxCell>
        <mxCell id="b1Urye167cou7S2OTA0D-4" value="&lt;div&gt;Request&lt;/div&gt;&lt;div&gt;parser&lt;/div&gt;" style="html=1;points=[];perimeter=orthogonalPerimeter;outlineConnect=0;targetShapes=umlLifeline;portConstraint=eastwest;newEdgeStyle={&quot;edgeStyle&quot;:&quot;elbowEdgeStyle&quot;,&quot;elbow&quot;:&quot;vertical&quot;,&quot;curved&quot;:0,&quot;rounded&quot;:0};labelBackgroundColor=#FFFFFF;" vertex="1" parent="bYaiq9KGUtEaHgg68krm-4">
          <mxGeometry y="170" width="50" height="150" as="geometry" />
        </mxCell>
        <mxCell id="b1Urye167cou7S2OTA0D-17" value="&lt;div&gt;AES&lt;/div&gt;&lt;div&gt;encrypt&lt;br&gt;&lt;/div&gt;" style="html=1;points=[];perimeter=orthogonalPerimeter;outlineConnect=0;targetShapes=umlLifeline;portConstraint=eastwest;newEdgeStyle={&quot;edgeStyle&quot;:&quot;elbowEdgeStyle&quot;,&quot;elbow&quot;:&quot;vertical&quot;,&quot;curved&quot;:0,&quot;rounded&quot;:0};labelBackgroundColor=#FFFFFF;" vertex="1" parent="bYaiq9KGUtEaHgg68krm-4">
          <mxGeometry y="360" width="50" height="50" as="geometry" />
        </mxCell>
        <mxCell id="bYaiq9KGUtEaHgg68krm-7" value="Node" style="text;html=1;strokeColor=none;fillColor=none;align=center;verticalAlign=middle;whiteSpace=wrap;rounded=0;labelBackgroundColor=#FFFFFF;" vertex="1" parent="1">
          <mxGeometry x="350" y="10" width="60" height="30" as="geometry" />
        </mxCell>
        <mxCell id="bYaiq9KGUtEaHgg68krm-8" value="Control Center" style="text;html=1;strokeColor=none;fillColor=none;align=center;verticalAlign=middle;whiteSpace=wrap;rounded=0;labelBackgroundColor=#FFFFFF;" vertex="1" parent="1">
          <mxGeometry x="425" y="10" width="95" height="30" as="geometry" />
        </mxCell>
        <mxCell id="bYaiq9KGUtEaHgg68krm-9" value="&lt;div&gt;Local&lt;/div&gt;&lt;div&gt;persistence&lt;/div&gt;" style="shape=umlLifeline;perimeter=lifelinePerimeter;whiteSpace=wrap;html=1;container=0;dropTarget=0;collapsible=0;recursiveResize=0;outlineConnect=0;portConstraint=eastwest;newEdgeStyle={&quot;edgeStyle&quot;:&quot;elbowEdgeStyle&quot;,&quot;elbow&quot;:&quot;vertical&quot;,&quot;curved&quot;:0,&quot;rounded&quot;:0};labelBackgroundColor=#FFFFFF;" vertex="1" parent="1">
          <mxGeometry x="570" y="40" width="100" height="440" as="geometry" />
        </mxCell>
        <mxCell id="bYaiq9KGUtEaHgg68krm-10" value="" style="html=1;points=[];perimeter=orthogonalPerimeter;outlineConnect=0;targetShapes=umlLifeline;portConstraint=eastwest;newEdgeStyle={&quot;edgeStyle&quot;:&quot;elbowEdgeStyle&quot;,&quot;elbow&quot;:&quot;vertical&quot;,&quot;curved&quot;:0,&quot;rounded&quot;:0};labelBackgroundColor=#FFFFFF;" vertex="1" parent="bYaiq9KGUtEaHgg68krm-9">
          <mxGeometry x="45" y="80" width="10" height="40" as="geometry" />
        </mxCell>
        <mxCell id="bYaiq9KGUtEaHgg68krm-11" value="Redis DB" style="shape=umlLifeline;perimeter=lifelinePerimeter;whiteSpace=wrap;html=1;container=0;dropTarget=0;collapsible=0;recursiveResize=0;outlineConnect=0;portConstraint=eastwest;newEdgeStyle={&quot;edgeStyle&quot;:&quot;elbowEdgeStyle&quot;,&quot;elbow&quot;:&quot;vertical&quot;,&quot;curved&quot;:0,&quot;rounded&quot;:0};labelBackgroundColor=#FFFFFF;" vertex="1" parent="1">
          <mxGeometry x="690" y="40" width="100" height="440" as="geometry" />
        </mxCell>
        <mxCell id="bYaiq9KGUtEaHgg68krm-12" value="" style="html=1;points=[];perimeter=orthogonalPerimeter;outlineConnect=0;targetShapes=umlLifeline;portConstraint=eastwest;newEdgeStyle={&quot;edgeStyle&quot;:&quot;elbowEdgeStyle&quot;,&quot;elbow&quot;:&quot;vertical&quot;,&quot;curved&quot;:0,&quot;rounded&quot;:0};labelBackgroundColor=#FFFFFF;" vertex="1" parent="bYaiq9KGUtEaHgg68krm-11">
          <mxGeometry x="45" y="170" width="10" height="140" as="geometry" />
        </mxCell>
        <mxCell id="bYaiq9KGUtEaHgg68krm-13" value="" style="endArrow=classic;html=1;rounded=0;" edge="1" parent="1">
          <mxGeometry width="50" height="50" relative="1" as="geometry">
            <mxPoint x="505" y="130" as="sourcePoint" />
            <mxPoint x="615" y="130" as="targetPoint" />
          </mxGeometry>
        </mxCell>
        <mxCell id="bYaiq9KGUtEaHgg68krm-14" value="Request key" style="edgeLabel;html=1;align=center;verticalAlign=middle;resizable=0;points=[];" vertex="1" connectable="0" parent="bYaiq9KGUtEaHgg68krm-13">
          <mxGeometry x="-0.0145" relative="1" as="geometry">
            <mxPoint y="-10" as="offset" />
          </mxGeometry>
        </mxCell>
        <mxCell id="bYaiq9KGUtEaHgg68krm-15" value="Private key" style="html=1;verticalAlign=bottom;endArrow=open;dashed=1;endSize=8;edgeStyle=elbowEdgeStyle;elbow=vertical;curved=0;rounded=0;labelBackgroundColor=#FFFFFF;" edge="1" parent="1">
          <mxGeometry relative="1" as="geometry">
            <mxPoint x="500" y="150" as="targetPoint" />
            <Array as="points">
              <mxPoint x="555" y="150" />
            </Array>
            <mxPoint x="615" y="150" as="sourcePoint" />
          </mxGeometry>
        </mxCell>
        <mxCell id="bYaiq9KGUtEaHgg68krm-16" value="" style="triangle;whiteSpace=wrap;html=1;rotation=-180;" vertex="1" parent="1">
          <mxGeometry x="490" y="140" width="10" height="20" as="geometry" />
        </mxCell>
        <mxCell id="bYaiq9KGUtEaHgg68krm-17" value="" style="endArrow=classic;html=1;rounded=0;labelBackgroundColor=#FFFFFF;" edge="1" parent="1">
          <mxGeometry width="50" height="50" relative="1" as="geometry">
            <mxPoint x="345" y="165" as="sourcePoint" />
            <mxPoint x="450" y="165" as="targetPoint" />
          </mxGeometry>
        </mxCell>
        <mxCell id="bYaiq9KGUtEaHgg68krm-18" value="Encrypted request" style="edgeLabel;html=1;align=center;verticalAlign=middle;resizable=0;points=[];labelBackgroundColor=#FFFFFF;" vertex="1" connectable="0" parent="bYaiq9KGUtEaHgg68krm-17">
          <mxGeometry x="0.0047" relative="1" as="geometry">
            <mxPoint x="-2" y="-8" as="offset" />
          </mxGeometry>
        </mxCell>
        <mxCell id="b1Urye167cou7S2OTA0D-3" value="" style="endArrow=none;html=1;rounded=0;exitX=0.299;exitY=0.583;exitDx=0;exitDy=0;exitPerimeter=0;endFill=0;startArrow=classic;startFill=1;" edge="1" parent="1" target="bYaiq9KGUtEaHgg68krm-6">
          <mxGeometry width="50" height="50" relative="1" as="geometry">
            <mxPoint x="472.5" y="210" as="sourcePoint" />
            <mxPoint x="550" y="210" as="targetPoint" />
          </mxGeometry>
        </mxCell>
        <mxCell id="b1Urye167cou7S2OTA0D-5" value="" style="endArrow=classic;html=1;rounded=0;" edge="1" parent="1">
          <mxGeometry width="50" height="50" relative="1" as="geometry">
            <mxPoint x="500" y="220" as="sourcePoint" />
            <mxPoint x="735" y="220" as="targetPoint" />
          </mxGeometry>
        </mxCell>
        <mxCell id="b1Urye167cou7S2OTA0D-6" value="Validate network registration" style="edgeLabel;html=1;align=center;verticalAlign=middle;resizable=0;points=[];" vertex="1" connectable="0" parent="b1Urye167cou7S2OTA0D-5">
          <mxGeometry x="-0.0019" relative="1" as="geometry">
            <mxPoint x="1" y="-8" as="offset" />
          </mxGeometry>
        </mxCell>
        <mxCell id="b1Urye167cou7S2OTA0D-7" value="" style="html=1;verticalAlign=bottom;endArrow=open;dashed=1;endSize=8;edgeStyle=elbowEdgeStyle;elbow=vertical;curved=0;rounded=0;labelBackgroundColor=#FFFFFF;" edge="1" parent="1">
          <mxGeometry relative="1" as="geometry">
            <mxPoint x="500" y="240" as="targetPoint" />
            <Array as="points">
              <mxPoint x="565" y="240" />
            </Array>
            <mxPoint x="735" y="240" as="sourcePoint" />
          </mxGeometry>
        </mxCell>
        <mxCell id="b1Urye167cou7S2OTA0D-9" value="" style="endArrow=classic;html=1;rounded=0;" edge="1" parent="1">
          <mxGeometry width="50" height="50" relative="1" as="geometry">
            <mxPoint x="500.25" y="270" as="sourcePoint" />
            <mxPoint x="735" y="270" as="targetPoint" />
          </mxGeometry>
        </mxCell>
        <mxCell id="b1Urye167cou7S2OTA0D-10" value="Check if the node ID exists" style="edgeLabel;html=1;align=center;verticalAlign=middle;resizable=0;points=[];" vertex="1" connectable="0" parent="b1Urye167cou7S2OTA0D-9">
          <mxGeometry x="-0.0019" relative="1" as="geometry">
            <mxPoint x="1" y="-8" as="offset" />
          </mxGeometry>
        </mxCell>
        <mxCell id="b1Urye167cou7S2OTA0D-11" value="" style="html=1;verticalAlign=bottom;endArrow=open;dashed=1;endSize=8;edgeStyle=elbowEdgeStyle;elbow=vertical;curved=0;rounded=0;labelBackgroundColor=#FFFFFF;" edge="1" parent="1" source="b1Urye167cou7S2OTA0D-23">
          <mxGeometry relative="1" as="geometry">
            <mxPoint x="500.25" y="290" as="targetPoint" />
            <Array as="points" />
            <mxPoint x="735.25" y="290" as="sourcePoint" />
          </mxGeometry>
        </mxCell>
        <mxCell id="b1Urye167cou7S2OTA0D-14" value="" style="endArrow=classic;html=1;rounded=0;" edge="1" parent="1">
          <mxGeometry width="50" height="50" relative="1" as="geometry">
            <mxPoint x="500.25" y="320" as="sourcePoint" />
            <mxPoint x="735" y="320" as="targetPoint" />
          </mxGeometry>
        </mxCell>
        <mxCell id="b1Urye167cou7S2OTA0D-15" value="Create or update node" style="edgeLabel;html=1;align=center;verticalAlign=middle;resizable=0;points=[];" vertex="1" connectable="0" parent="b1Urye167cou7S2OTA0D-14">
          <mxGeometry x="-0.0019" relative="1" as="geometry">
            <mxPoint x="1" y="-8" as="offset" />
          </mxGeometry>
        </mxCell>
        <mxCell id="b1Urye167cou7S2OTA0D-16" value="" style="html=1;verticalAlign=bottom;endArrow=open;dashed=1;endSize=8;edgeStyle=elbowEdgeStyle;elbow=vertical;curved=0;rounded=0;labelBackgroundColor=#FFFFFF;" edge="1" parent="1">
          <mxGeometry relative="1" as="geometry">
            <mxPoint x="500.25" y="340" as="targetPoint" />
            <Array as="points">
              <mxPoint x="565.25" y="340" />
            </Array>
            <mxPoint x="735.25" y="340" as="sourcePoint" />
          </mxGeometry>
        </mxCell>
        <mxCell id="b1Urye167cou7S2OTA0D-18" value="" style="triangle;whiteSpace=wrap;html=1;rotation=0;" vertex="1" parent="1">
          <mxGeometry x="450" y="400" width="10" height="20" as="geometry" />
        </mxCell>
        <mxCell id="b1Urye167cou7S2OTA0D-19" value="" style="endArrow=none;html=1;rounded=0;exitX=0;exitY=0.5;exitDx=0;exitDy=0;startArrow=classic;startFill=1;" edge="1" parent="1" source="b1Urye167cou7S2OTA0D-18" target="b1Urye167cou7S2OTA0D-4">
          <mxGeometry width="50" height="50" relative="1" as="geometry">
            <mxPoint x="482.5" y="220" as="sourcePoint" />
            <mxPoint x="483" y="200" as="targetPoint" />
            <Array as="points">
              <mxPoint x="430" y="410" />
              <mxPoint x="430" y="380" />
              <mxPoint x="475" y="380" />
            </Array>
          </mxGeometry>
        </mxCell>
        <mxCell id="b1Urye167cou7S2OTA0D-24" value="Node key" style="edgeLabel;html=1;align=center;verticalAlign=middle;resizable=0;points=[];" vertex="1" connectable="0" parent="b1Urye167cou7S2OTA0D-19">
          <mxGeometry x="0.2062" relative="1" as="geometry">
            <mxPoint x="1" y="-10" as="offset" />
          </mxGeometry>
        </mxCell>
        <mxCell id="b1Urye167cou7S2OTA0D-21" value="" style="html=1;verticalAlign=bottom;endArrow=none;dashed=1;endSize=8;edgeStyle=elbowEdgeStyle;elbow=vertical;curved=0;rounded=0;labelBackgroundColor=#FFFFFF;endFill=0;" edge="1" parent="1" target="b1Urye167cou7S2OTA0D-23">
          <mxGeometry relative="1" as="geometry">
            <mxPoint x="500.25" y="290" as="targetPoint" />
            <Array as="points">
              <mxPoint x="565.25" y="290" />
            </Array>
            <mxPoint x="735.25" y="290" as="sourcePoint" />
          </mxGeometry>
        </mxCell>
        <mxCell id="b1Urye167cou7S2OTA0D-22" value="New or existing node ID" style="edgeLabel;html=1;align=center;verticalAlign=middle;resizable=0;points=[];" vertex="1" connectable="0" parent="b1Urye167cou7S2OTA0D-21">
          <mxGeometry x="-0.0127" y="-1" relative="1" as="geometry">
            <mxPoint x="-19" y="-7" as="offset" />
          </mxGeometry>
        </mxCell>
        <mxCell id="b1Urye167cou7S2OTA0D-23" value="" style="shape=waypoint;sketch=0;fillStyle=solid;size=6;pointerEvents=1;points=[];fillColor=none;resizable=0;rotatable=0;perimeter=centerPerimeter;snapToPoint=1;" vertex="1" parent="1">
          <mxGeometry x="530" y="280" width="20" height="20" as="geometry" />
        </mxCell>
        <mxCell id="b1Urye167cou7S2OTA0D-25" value="" style="endArrow=classic;html=1;rounded=0;endFill=1;exitX=0.447;exitY=0.327;exitDx=0;exitDy=0;exitPerimeter=0;" edge="1" parent="1" source="b1Urye167cou7S2OTA0D-23" target="b1Urye167cou7S2OTA0D-17">
          <mxGeometry width="50" height="50" relative="1" as="geometry">
            <mxPoint x="570" y="360" as="sourcePoint" />
            <mxPoint x="620" y="310" as="targetPoint" />
            <Array as="points">
              <mxPoint x="540" y="420" />
            </Array>
          </mxGeometry>
        </mxCell>
        <mxCell id="b1Urye167cou7S2OTA0D-26" value="" style="endArrow=open;html=1;rounded=0;labelBackgroundColor=#FFFFFF;dashed=1;endFill=0;" edge="1" parent="1" source="b1Urye167cou7S2OTA0D-17">
          <mxGeometry width="50" height="50" relative="1" as="geometry">
            <mxPoint x="260" y="360" as="sourcePoint" />
            <mxPoint x="345" y="425" as="targetPoint" />
          </mxGeometry>
        </mxCell>
        <mxCell id="b1Urye167cou7S2OTA0D-27" value="Encrypted ID" style="edgeLabel;html=1;align=center;verticalAlign=middle;resizable=0;points=[];labelBackgroundColor=#FFFFFF;" vertex="1" connectable="0" parent="b1Urye167cou7S2OTA0D-26">
          <mxGeometry x="0.0047" relative="1" as="geometry">
            <mxPoint x="-2" y="-8" as="offset" />
          </mxGeometry>
        </mxCell>
      </root>
    </mxGraphModel>
  </diagram>
  <diagram id="J8CzSkWsVNw37gPY4e7Q" name="state-server">
    <mxGraphModel dx="698" dy="475" grid="1" gridSize="10" guides="1" tooltips="1" connect="1" arrows="1" fold="1" page="1" pageScale="1" pageWidth="850" pageHeight="1100" math="0" shadow="0">
      <root>
        <mxCell id="0" />
        <mxCell id="1" parent="0" />
        <mxCell id="iR2xDDzowHdQ37ZNEcDT-1" value="" style="endArrow=none;dashed=1;html=1;dashPattern=1 3;strokeWidth=2;rounded=0;labelBackgroundColor=#FFFFFF;" edge="1" parent="1">
          <mxGeometry width="50" height="50" relative="1" as="geometry">
            <mxPoint x="420" y="490" as="sourcePoint" />
            <mxPoint x="420" y="20" as="targetPoint" />
          </mxGeometry>
        </mxCell>
        <mxCell id="iR2xDDzowHdQ37ZNEcDT-2" value="Node registration program" style="shape=umlLifeline;perimeter=lifelinePerimeter;whiteSpace=wrap;html=1;container=0;dropTarget=0;collapsible=0;recursiveResize=0;outlineConnect=0;portConstraint=eastwest;newEdgeStyle={&quot;edgeStyle&quot;:&quot;elbowEdgeStyle&quot;,&quot;elbow&quot;:&quot;vertical&quot;,&quot;curved&quot;:0,&quot;rounded&quot;:0};labelBackgroundColor=#FFFFFF;" vertex="1" parent="1">
          <mxGeometry x="290" y="40" width="100" height="440" as="geometry" />
        </mxCell>
        <mxCell id="iR2xDDzowHdQ37ZNEcDT-3" value="" style="html=1;points=[];perimeter=orthogonalPerimeter;outlineConnect=0;targetShapes=umlLifeline;portConstraint=eastwest;newEdgeStyle={&quot;edgeStyle&quot;:&quot;elbowEdgeStyle&quot;,&quot;elbow&quot;:&quot;vertical&quot;,&quot;curved&quot;:0,&quot;rounded&quot;:0};labelBackgroundColor=#FFFFFF;" vertex="1" parent="iR2xDDzowHdQ37ZNEcDT-2">
          <mxGeometry x="45" y="80" width="10" height="350" as="geometry" />
        </mxCell>
        <mxCell id="iR2xDDzowHdQ37ZNEcDT-4" value="CC registration server" style="shape=umlLifeline;perimeter=lifelinePerimeter;whiteSpace=wrap;html=1;container=0;dropTarget=0;collapsible=0;recursiveResize=0;outlineConnect=0;portConstraint=eastwest;newEdgeStyle={&quot;edgeStyle&quot;:&quot;elbowEdgeStyle&quot;,&quot;elbow&quot;:&quot;vertical&quot;,&quot;curved&quot;:0,&quot;rounded&quot;:0};labelBackgroundColor=#FFFFFF;" vertex="1" parent="1">
          <mxGeometry x="450" y="40" width="100" height="440" as="geometry" />
        </mxCell>
        <mxCell id="iR2xDDzowHdQ37ZNEcDT-5" value="" style="html=1;points=[];perimeter=orthogonalPerimeter;outlineConnect=0;targetShapes=umlLifeline;portConstraint=eastwest;newEdgeStyle={&quot;edgeStyle&quot;:&quot;elbowEdgeStyle&quot;,&quot;elbow&quot;:&quot;vertical&quot;,&quot;curved&quot;:0,&quot;rounded&quot;:0};labelBackgroundColor=#FFFFFF;" vertex="1" parent="iR2xDDzowHdQ37ZNEcDT-4">
          <mxGeometry x="45" y="80" width="10" height="350" as="geometry" />
        </mxCell>
        <mxCell id="iR2xDDzowHdQ37ZNEcDT-6" value="&lt;div&gt;RSA&lt;/div&gt;&lt;div&gt;decrypt&lt;br&gt;&lt;/div&gt;" style="html=1;points=[];perimeter=orthogonalPerimeter;outlineConnect=0;targetShapes=umlLifeline;portConstraint=eastwest;newEdgeStyle={&quot;edgeStyle&quot;:&quot;elbowEdgeStyle&quot;,&quot;elbow&quot;:&quot;vertical&quot;,&quot;curved&quot;:0,&quot;rounded&quot;:0};labelBackgroundColor=#FFFFFF;" vertex="1" parent="iR2xDDzowHdQ37ZNEcDT-4">
          <mxGeometry y="100" width="50" height="50" as="geometry" />
        </mxCell>
        <mxCell id="iR2xDDzowHdQ37ZNEcDT-7" value="&lt;div&gt;Request&lt;/div&gt;&lt;div&gt;parser&lt;/div&gt;" style="html=1;points=[];perimeter=orthogonalPerimeter;outlineConnect=0;targetShapes=umlLifeline;portConstraint=eastwest;newEdgeStyle={&quot;edgeStyle&quot;:&quot;elbowEdgeStyle&quot;,&quot;elbow&quot;:&quot;vertical&quot;,&quot;curved&quot;:0,&quot;rounded&quot;:0};labelBackgroundColor=#FFFFFF;" vertex="1" parent="iR2xDDzowHdQ37ZNEcDT-4">
          <mxGeometry y="170" width="50" height="150" as="geometry" />
        </mxCell>
        <mxCell id="iR2xDDzowHdQ37ZNEcDT-8" value="&lt;div&gt;AES&lt;/div&gt;&lt;div&gt;encrypt&lt;br&gt;&lt;/div&gt;" style="html=1;points=[];perimeter=orthogonalPerimeter;outlineConnect=0;targetShapes=umlLifeline;portConstraint=eastwest;newEdgeStyle={&quot;edgeStyle&quot;:&quot;elbowEdgeStyle&quot;,&quot;elbow&quot;:&quot;vertical&quot;,&quot;curved&quot;:0,&quot;rounded&quot;:0};labelBackgroundColor=#FFFFFF;" vertex="1" parent="iR2xDDzowHdQ37ZNEcDT-4">
          <mxGeometry y="360" width="50" height="50" as="geometry" />
        </mxCell>
        <mxCell id="iR2xDDzowHdQ37ZNEcDT-9" value="Node" style="text;html=1;strokeColor=none;fillColor=none;align=center;verticalAlign=middle;whiteSpace=wrap;rounded=0;labelBackgroundColor=#FFFFFF;" vertex="1" parent="1">
          <mxGeometry x="350" y="10" width="60" height="30" as="geometry" />
        </mxCell>
        <mxCell id="iR2xDDzowHdQ37ZNEcDT-10" value="Control Center" style="text;html=1;strokeColor=none;fillColor=none;align=center;verticalAlign=middle;whiteSpace=wrap;rounded=0;labelBackgroundColor=#FFFFFF;" vertex="1" parent="1">
          <mxGeometry x="425" y="10" width="95" height="30" as="geometry" />
        </mxCell>
        <mxCell id="iR2xDDzowHdQ37ZNEcDT-13" value="Redis DB" style="shape=umlLifeline;perimeter=lifelinePerimeter;whiteSpace=wrap;html=1;container=0;dropTarget=0;collapsible=0;recursiveResize=0;outlineConnect=0;portConstraint=eastwest;newEdgeStyle={&quot;edgeStyle&quot;:&quot;elbowEdgeStyle&quot;,&quot;elbow&quot;:&quot;vertical&quot;,&quot;curved&quot;:0,&quot;rounded&quot;:0};labelBackgroundColor=#FFFFFF;" vertex="1" parent="1">
          <mxGeometry x="690" y="40" width="100" height="440" as="geometry" />
        </mxCell>
        <mxCell id="iR2xDDzowHdQ37ZNEcDT-14" value="" style="html=1;points=[];perimeter=orthogonalPerimeter;outlineConnect=0;targetShapes=umlLifeline;portConstraint=eastwest;newEdgeStyle={&quot;edgeStyle&quot;:&quot;elbowEdgeStyle&quot;,&quot;elbow&quot;:&quot;vertical&quot;,&quot;curved&quot;:0,&quot;rounded&quot;:0};labelBackgroundColor=#FFFFFF;" vertex="1" parent="iR2xDDzowHdQ37ZNEcDT-13">
          <mxGeometry x="45" y="170" width="10" height="140" as="geometry" />
        </mxCell>
        <mxCell id="iR2xDDzowHdQ37ZNEcDT-18" value="" style="triangle;whiteSpace=wrap;html=1;rotation=-180;" vertex="1" parent="1">
          <mxGeometry x="490" y="140" width="10" height="20" as="geometry" />
        </mxCell>
        <mxCell id="iR2xDDzowHdQ37ZNEcDT-19" value="" style="endArrow=classic;html=1;rounded=0;labelBackgroundColor=#FFFFFF;" edge="1" parent="1">
          <mxGeometry width="50" height="50" relative="1" as="geometry">
            <mxPoint x="345" y="165" as="sourcePoint" />
            <mxPoint x="450" y="165" as="targetPoint" />
          </mxGeometry>
        </mxCell>
        <mxCell id="iR2xDDzowHdQ37ZNEcDT-20" value="Encrypted request" style="edgeLabel;html=1;align=center;verticalAlign=middle;resizable=0;points=[];labelBackgroundColor=#FFFFFF;" vertex="1" connectable="0" parent="iR2xDDzowHdQ37ZNEcDT-19">
          <mxGeometry x="0.0047" relative="1" as="geometry">
            <mxPoint x="-2" y="-8" as="offset" />
          </mxGeometry>
        </mxCell>
        <mxCell id="iR2xDDzowHdQ37ZNEcDT-21" value="" style="endArrow=none;html=1;rounded=0;exitX=0.299;exitY=0.583;exitDx=0;exitDy=0;exitPerimeter=0;endFill=0;startArrow=classic;startFill=1;" edge="1" parent="1" target="iR2xDDzowHdQ37ZNEcDT-6">
          <mxGeometry width="50" height="50" relative="1" as="geometry">
            <mxPoint x="472.5" y="210" as="sourcePoint" />
            <mxPoint x="550" y="210" as="targetPoint" />
          </mxGeometry>
        </mxCell>
        <mxCell id="iR2xDDzowHdQ37ZNEcDT-22" value="" style="endArrow=classic;html=1;rounded=0;" edge="1" parent="1">
          <mxGeometry width="50" height="50" relative="1" as="geometry">
            <mxPoint x="500" y="220" as="sourcePoint" />
            <mxPoint x="735" y="220" as="targetPoint" />
          </mxGeometry>
        </mxCell>
        <mxCell id="iR2xDDzowHdQ37ZNEcDT-23" value="Validate network registration" style="edgeLabel;html=1;align=center;verticalAlign=middle;resizable=0;points=[];" vertex="1" connectable="0" parent="iR2xDDzowHdQ37ZNEcDT-22">
          <mxGeometry x="-0.0019" relative="1" as="geometry">
            <mxPoint x="1" y="-8" as="offset" />
          </mxGeometry>
        </mxCell>
        <mxCell id="iR2xDDzowHdQ37ZNEcDT-24" value="" style="html=1;verticalAlign=bottom;endArrow=open;dashed=1;endSize=8;edgeStyle=elbowEdgeStyle;elbow=vertical;curved=0;rounded=0;labelBackgroundColor=#FFFFFF;" edge="1" parent="1">
          <mxGeometry relative="1" as="geometry">
            <mxPoint x="500" y="240" as="targetPoint" />
            <Array as="points">
              <mxPoint x="565" y="240" />
            </Array>
            <mxPoint x="735" y="240" as="sourcePoint" />
          </mxGeometry>
        </mxCell>
        <mxCell id="iR2xDDzowHdQ37ZNEcDT-25" value="" style="endArrow=classic;html=1;rounded=0;" edge="1" parent="1">
          <mxGeometry width="50" height="50" relative="1" as="geometry">
            <mxPoint x="500.25" y="270" as="sourcePoint" />
            <mxPoint x="735" y="270" as="targetPoint" />
          </mxGeometry>
        </mxCell>
        <mxCell id="iR2xDDzowHdQ37ZNEcDT-26" value="Check if the node ID exists" style="edgeLabel;html=1;align=center;verticalAlign=middle;resizable=0;points=[];" vertex="1" connectable="0" parent="iR2xDDzowHdQ37ZNEcDT-25">
          <mxGeometry x="-0.0019" relative="1" as="geometry">
            <mxPoint x="1" y="-8" as="offset" />
          </mxGeometry>
        </mxCell>
        <mxCell id="iR2xDDzowHdQ37ZNEcDT-27" value="" style="html=1;verticalAlign=bottom;endArrow=open;dashed=1;endSize=8;edgeStyle=elbowEdgeStyle;elbow=vertical;curved=0;rounded=0;labelBackgroundColor=#FFFFFF;" edge="1" parent="1" source="iR2xDDzowHdQ37ZNEcDT-36">
          <mxGeometry relative="1" as="geometry">
            <mxPoint x="500.25" y="290" as="targetPoint" />
            <Array as="points" />
            <mxPoint x="735.25" y="290" as="sourcePoint" />
          </mxGeometry>
        </mxCell>
        <mxCell id="iR2xDDzowHdQ37ZNEcDT-28" value="" style="endArrow=classic;html=1;rounded=0;" edge="1" parent="1">
          <mxGeometry width="50" height="50" relative="1" as="geometry">
            <mxPoint x="500.25" y="320" as="sourcePoint" />
            <mxPoint x="735" y="320" as="targetPoint" />
          </mxGeometry>
        </mxCell>
        <mxCell id="iR2xDDzowHdQ37ZNEcDT-29" value="Create or update node" style="edgeLabel;html=1;align=center;verticalAlign=middle;resizable=0;points=[];" vertex="1" connectable="0" parent="iR2xDDzowHdQ37ZNEcDT-28">
          <mxGeometry x="-0.0019" relative="1" as="geometry">
            <mxPoint x="1" y="-8" as="offset" />
          </mxGeometry>
        </mxCell>
        <mxCell id="iR2xDDzowHdQ37ZNEcDT-30" value="" style="html=1;verticalAlign=bottom;endArrow=open;dashed=1;endSize=8;edgeStyle=elbowEdgeStyle;elbow=vertical;curved=0;rounded=0;labelBackgroundColor=#FFFFFF;" edge="1" parent="1">
          <mxGeometry relative="1" as="geometry">
            <mxPoint x="500.25" y="340" as="targetPoint" />
            <Array as="points">
              <mxPoint x="565.25" y="340" />
            </Array>
            <mxPoint x="735.25" y="340" as="sourcePoint" />
          </mxGeometry>
        </mxCell>
        <mxCell id="iR2xDDzowHdQ37ZNEcDT-31" value="" style="triangle;whiteSpace=wrap;html=1;rotation=0;" vertex="1" parent="1">
          <mxGeometry x="450" y="400" width="10" height="20" as="geometry" />
        </mxCell>
        <mxCell id="iR2xDDzowHdQ37ZNEcDT-32" value="" style="endArrow=none;html=1;rounded=0;exitX=0;exitY=0.5;exitDx=0;exitDy=0;startArrow=classic;startFill=1;" edge="1" parent="1" source="iR2xDDzowHdQ37ZNEcDT-31" target="iR2xDDzowHdQ37ZNEcDT-7">
          <mxGeometry width="50" height="50" relative="1" as="geometry">
            <mxPoint x="482.5" y="220" as="sourcePoint" />
            <mxPoint x="483" y="200" as="targetPoint" />
            <Array as="points">
              <mxPoint x="430" y="410" />
              <mxPoint x="430" y="380" />
              <mxPoint x="475" y="380" />
            </Array>
          </mxGeometry>
        </mxCell>
        <mxCell id="iR2xDDzowHdQ37ZNEcDT-33" value="Node key" style="edgeLabel;html=1;align=center;verticalAlign=middle;resizable=0;points=[];" vertex="1" connectable="0" parent="iR2xDDzowHdQ37ZNEcDT-32">
          <mxGeometry x="0.2062" relative="1" as="geometry">
            <mxPoint x="1" y="-10" as="offset" />
          </mxGeometry>
        </mxCell>
        <mxCell id="iR2xDDzowHdQ37ZNEcDT-34" value="" style="html=1;verticalAlign=bottom;endArrow=none;dashed=1;endSize=8;edgeStyle=elbowEdgeStyle;elbow=vertical;curved=0;rounded=0;labelBackgroundColor=#FFFFFF;endFill=0;" edge="1" parent="1" target="iR2xDDzowHdQ37ZNEcDT-36">
          <mxGeometry relative="1" as="geometry">
            <mxPoint x="500.25" y="290" as="targetPoint" />
            <Array as="points">
              <mxPoint x="565.25" y="290" />
            </Array>
            <mxPoint x="735.25" y="290" as="sourcePoint" />
          </mxGeometry>
        </mxCell>
        <mxCell id="iR2xDDzowHdQ37ZNEcDT-35" value="New or existing node ID" style="edgeLabel;html=1;align=center;verticalAlign=middle;resizable=0;points=[];" vertex="1" connectable="0" parent="iR2xDDzowHdQ37ZNEcDT-34">
          <mxGeometry x="-0.0127" y="-1" relative="1" as="geometry">
            <mxPoint x="-19" y="-7" as="offset" />
          </mxGeometry>
        </mxCell>
        <mxCell id="iR2xDDzowHdQ37ZNEcDT-36" value="" style="shape=waypoint;sketch=0;fillStyle=solid;size=6;pointerEvents=1;points=[];fillColor=none;resizable=0;rotatable=0;perimeter=centerPerimeter;snapToPoint=1;" vertex="1" parent="1">
          <mxGeometry x="530" y="280" width="20" height="20" as="geometry" />
        </mxCell>
        <mxCell id="iR2xDDzowHdQ37ZNEcDT-37" value="" style="endArrow=classic;html=1;rounded=0;endFill=1;exitX=0.447;exitY=0.327;exitDx=0;exitDy=0;exitPerimeter=0;" edge="1" parent="1" source="iR2xDDzowHdQ37ZNEcDT-36" target="iR2xDDzowHdQ37ZNEcDT-8">
          <mxGeometry width="50" height="50" relative="1" as="geometry">
            <mxPoint x="570" y="360" as="sourcePoint" />
            <mxPoint x="620" y="310" as="targetPoint" />
            <Array as="points">
              <mxPoint x="540" y="420" />
            </Array>
          </mxGeometry>
        </mxCell>
        <mxCell id="iR2xDDzowHdQ37ZNEcDT-38" value="" style="endArrow=classic;html=1;rounded=0;labelBackgroundColor=#FFFFFF;" edge="1" parent="1" source="iR2xDDzowHdQ37ZNEcDT-8">
          <mxGeometry width="50" height="50" relative="1" as="geometry">
            <mxPoint x="260" y="360" as="sourcePoint" />
            <mxPoint x="345" y="425" as="targetPoint" />
          </mxGeometry>
        </mxCell>
        <mxCell id="iR2xDDzowHdQ37ZNEcDT-39" value="Encrypted ID" style="edgeLabel;html=1;align=center;verticalAlign=middle;resizable=0;points=[];labelBackgroundColor=#FFFFFF;" vertex="1" connectable="0" parent="iR2xDDzowHdQ37ZNEcDT-38">
          <mxGeometry x="0.0047" relative="1" as="geometry">
            <mxPoint x="-2" y="-8" as="offset" />
          </mxGeometry>
        </mxCell>
      </root>
    </mxGraphModel>
  </diagram>
</mxfile>
